<?xml version="1.0" encoding="utf-8"?>
<?xml-stylesheet type="text/xsl" href="rss1.xsl"?>
<rss version="2.0" xmlns:atom="http://www.w3.org/2005/Atom" xmlns:content="http://purl.org/rss/1.0/modules/content/" xmlns:dc="http://purl.org/dc/elements/1.1/" xmlns:media="http://search.yahoo.com/mrss/">
<channel>
 <title>Getty</title>
 <link>http://www.gettyimg.com/</link>
 <atom:link href="http://www.gettyimg.com/" rel="self" type="application/rss+xml" />

 
                <item>
                <title><![CDATA[【SD Live Performances】WEB-DL - Katy Perry The Prismatic World Tour 2012 AMZN WEB-DL DDP2.0 H.264-SiGLA]]></title>
                <link><![CDATA[https://sharemania.us/threads/katy-perry-the-prismatic-world-tour-2012-amzn-web-dl-ddp2-0-h-264-sigla.242727/]]></link>
                <description><![CDATA[<article>
<blockquote class="messageText SelectQuoteContainer ugc baseHtml">
<div style="text-align: center"><img src="https://ptpimg.me/i4uv5z.jpg" class="bbCodeImage LbImage" alt="[​IMG]" data-url="https://ptpimg.me/i4uv5z.jpg" style=""><br>
​</div>
<div class="ToggleTriggerAnchor bbCodeSpoilerContainer">
<button type="button" class="button bbCodeSpoilerButton ToggleTrigger Tooltip JsOnly" data-target="> .SpoilerTarget"><span>Spoiler: <span class="SpoilerTitle">MediaInfo</span></span></button>
<div class="SpoilerTarget bbCodeSpoilerText">General<br>
Unique ID : 147406445245707131316840315807133265538 (0x6EE572DD4FA05BE2E23DCF94B5A2EE82)<br>
Complete name : Katy.Perry.The.Prismatic.World.Tour.2012.480p.AMZN.WEB-DL.DDP2.0.H.264-SiGLA.mkv<br>
Format : Matroska<br>
Format version : Version 4<br>
File size : 1.61 GiB<br>
Duration : 1 h 56 min<br>
Overall bit rate mode : Constant<br>
Overall bit rate : 1 982 kb/s<br>
Movie name : Katy.Perry.-.The.Prismatic.World.Tour.2012.480p.AMZN.WEB-DL.DDP2.0.H.264-SiGLA<br>
Writing application : mkvmerge v62.0.0 ('SiGLA') 64-bit<br>
Writing library : libebml v1.4.2 + libmatroska v1.6.4<br>
<br>
Video<br>
ID : 1<br>
Format : AVC<br>
Format/Info : Advanced Video Codec<br>
Format profile : Main@L3<br>
Format settings : CABAC / 4 Ref Frames<br>
Format settings, CABAC : Yes<br>
Format settings, Reference frames : 4 frames<br>
Codec ID : V_MPEG4/ISO/AVC<br>
Duration : 1 h 56 min<br>
Bit rate mode : Constant<br>
Bit rate : 1 757 kb/s<br>
Nominal bit rate : 2 000 kb/s<br>
Width : 720 pixels<br>
Height : 404 pixels<br>
Display aspect ratio : 16:9<br>
Frame rate mode : Constant<br>
Frame rate : 25.000 FPS<br>
Color space : YUV<br>
Chroma subsampling : 4:2:0<br>
Bit depth : 8 bits<br>
Scan type : Progressive<br>
Bits/(Pixel*Frame) : 0.242<br>
Stream size : 1.43 GiB (89%)<br>
Default : Yes<br>
Forced : No<br>
Color range : Limited<br>
Color primaries : BT.709<br>
Transfer characteristics : BT.709<br>
Matrix coefficients : BT.709<br>
<br>
Audio<br>
ID : 2<br>
Format : E-AC-3<br>
Format/Info : Enhanced AC-3<br>
Commercial name : Dolby Digital Plus<br>
Codec ID : A_EAC3<br>
Duration : 1 h 56 min<br>
Bit rate mode : Constant<br>
Bit rate : 224 kb/s<br>
Channel(s) : 2 channels<br>
Channel layout : L R<br>
Sampling rate : 48.0 kHz<br>
Frame rate : 31.250 FPS (1536 SPF)<br>
Compression mode : Lossy<br>
Stream size : 186 MiB (11%)<br>
Title : English<br>
Language : English<br>
Service kind : Complete Main<br>
Default : Yes<br>
Forced : No</div>
</div><br>
<div class="bbCodeBlock bbCodeVfcHH HiddenContent">
<div class="attribution type">Hidden Content:</div>
<blockquote>You must either reply or click 'Like' to see the hidden information contained here.</blockquote>
</div>
<div class="messageTextEndMarker">&nbsp;</div>
</blockquote>
</article>]]></description>
                <author><![CDATA[-C.A.A]]></author>
                </item>

                
                <item>
                <title><![CDATA[【Requests】[REQ VID] - Mika Apple TV Sinfonia Pop]]></title>
                <link><![CDATA[https://sharemania.us/threads/mika-apple-tv-sinfonia-pop.242726/]]></link>
                <description><![CDATA[<article>
<blockquote class="messageText SelectQuoteContainer ugc baseHtml">
Hello,<br>
<br>
Is there someone who can share this one from Apple TV, MIKA Sinfonia Pop?<br>
Here's the link of which version I want to request.<br>
<br>
Thanks for the love <img src="styles/default/xenforo/smilies/big_smile-48.png" class="mceSmilie" alt=":)" title="Smile    :)"><br>
<br>
<br>
<a href="https://tv.apple.com/nl/movie/mika-sinfonia-pop/umc.cmc.34ou3ck0b7229fzx2xrh1m24h" target="_blank" class="externalLink" rel="nofollow">https://tv.apple.com/nl/movie/mika-sinfonia-pop/umc.cmc.34ou3ck0b7229fzx2xrh1m24h</a>
<div class="messageTextEndMarker">&nbsp;</div>
</blockquote>
</article>]]></description>
                <author><![CDATA[EvertNL]]></author>
                </item>

                
                <item>
                <title><![CDATA[【Albums (lossless)】FLAC - George Michael - Ladies And Gentlemen... The Best Of George Michael [QOBUZ CD 16-bit/44.1kHz]]]></title>
                <link><![CDATA[https://sharemania.us/threads/george-michael-ladies-and-gentlemen-the-best-of-george-michael-qobuz-cd-16-bit-44-1khz.242728/]]></link>
                <description><![CDATA[<article>
<blockquote class="messageText SelectQuoteContainer ugc baseHtml">
<span style="font-size: 22px"><b>George Michael - Ladies And Gentlemen... The Best Of George Michael [QOBUZ CD 16-bit/44.1kHz]</b></span><br>
<br>
<img src="https://imgur.com/hRg5CCR.jpg" class="bbCodeImage LbImage" alt="[​IMG]" data-url="https://imgur.com/hRg5CCR.jpg" style=""><br>
<br>
<span style="font-size: 18px"><b>ABOUT THE ALBUM</b></span><br>
<ul>
<li>2 disc(s) - 29 track(s)</li>
<li>Total length: 02:26:55</li>
</ul><ul>
<li>Main artists: <a href="https://www.qobuz.com/us-en/interpreter/george-michael/43368" target="_blank" class="externalLink" rel="nofollow">George Michael</a></li>
<li>Composer: <a href="https://www.qobuz.com/us-en/composer/various-composers/573076" target="_blank" class="externalLink" rel="nofollow">Various Composers</a></li>
<li>Label: <a href="https://www.qobuz.com/us-en/label/sony-music-entertainment/download-streaming-albums/4587" target="_blank" class="externalLink" rel="nofollow">Sony Music Entertainment</a></li>
<li>Genre: <a href="https://www.qobuz.com/us-en/genre/pop-rock/download-streaming-albums" target="_blank" class="externalLink" rel="nofollow">Pop/Rock</a> <a href="https://www.qobuz.com/us-en/genre/pop/download-streaming-albums" target="_blank" class="externalLink" rel="nofollow">Pop</a></li>
</ul>
<div class="bbCodeBlock bbCodeVfcHH HiddenContent">
<div class="attribution type">Hidden Content:</div>
<blockquote>You must reply before you can see the hidden data contained here.</blockquote>
</div><b>Password: musicasylum</b>
<div class="messageTextEndMarker">&nbsp;</div>
</blockquote>
</article>]]></description>
                <author><![CDATA[Mu$iC @$YLUM]]></author>
                </item>

                
                <item>
                <title><![CDATA[【Albums (lossless)】FLAC - Bee Gees - Timeless - The All-Time Greatest Hits [QOBUZ HI-RES AUDIO 24-bit/96.0kHz]]]></title>
                <link><![CDATA[https://sharemania.us/threads/bee-gees-timeless-the-all-time-greatest-hits-qobuz-hi-res-audio-24-bit-96-0khz.242725/]]></link>
                <description><![CDATA[<article>
<blockquote class="messageText SelectQuoteContainer ugc baseHtml">
<span style="font-size: 22px"><b>Bee Gees - Timeless - The All-Time Greatest Hits [QOBUZ HI-RES AUDIO 24-bit/96.0kHz]</b></span><br>
<br>
<img src="https://imgur.com/L6VTjvb.jpg" class="bbCodeImage LbImage" alt="[​IMG]" data-url="https://imgur.com/L6VTjvb.jpg" style=""><br>
<br>
<span style="font-size: 18px"><b>ALBUM REVIEW</b></span><br>
Most bands are lucky to get a single hit, much less a couple songs people will remember. The bands that do have a run of charting songs usually fade away after making a splash, never to be heard from again except on nostalgia tours and cruises. The Bee Gees were impressive enough to have two amazing stretches when they not only topped the charts, but helped define the music of the era. Timeless: The All-Time Greatest Hits collects the cream of the crop from both their late-'60s/early-'70s baroque pop and brilliant mid-'70s funk and disco-pop periods. Starting with their early hit from 1966, "Spicks and Specks," then ending with 1987's "You Win Again," the collection gives definitive proof that the brothers Gibb were geniuses at both songwriting and making records. The baroque pop sounds were lush and moving, equally melodramatic ("New York Mining Disaster 1941"), painfully romantic ("To Love Somebody"), and emotionally devastating ("I Started a Joke"). The shift to the dancefloor and bedroom meant that the songs were lighter and slicker, with Barry's sleek falsetto taking the lead on most of their hits. All the biggies are here from the Saturday Night Fever soundtrack, plus proto-disco jams like "Nights on Broadway," "Jive Talkin'," and one of their slightly under-the-radar classics, "Fanny (Be Tender with My Love)." No pop band of the past 50 years had a more impressive chart run -- both commercially and artistically -- than the Bee Gees, and Timeless does a fine job laying out the facts and not muddying the waters with rarities. It's just the hits, one brilliant track after another. There are other Bee Gees collections that dive more deeply into their career, but as far as single-disc sets go, you can't do better than this.<br>
<br>
<span style="font-size: 18px"><b>ABOUT THE ALBUM</b></span><br>
<ul>
<li>1 disc(s) - 21 track(s)</li>
<li>Total length: 01:18:12</li>
</ul><ul>
<li>Main artists: <a href="https://www.qobuz.com/us-en/interpreter/bee-gees/106004" target="_blank" class="externalLink" rel="nofollow">Bee Gees</a></li>
<li>Composer: <a href="https://www.qobuz.com/us-en/composer/various-composers/573076" target="_blank" class="externalLink" rel="nofollow">Various Composers</a></li>
<li>Label: <a href="https://www.qobuz.com/us-en/label/beegeescatalog/download-streaming-albums/236113" target="_blank" class="externalLink" rel="nofollow">Bee Gees Catalog</a></li>
<li>Genre: <a href="https://www.qobuz.com/us-en/genre/pop-rock/download-streaming-albums" target="_blank" class="externalLink" rel="nofollow">Pop/Rock</a></li>
</ul><br>
<div class="bbCodeBlock bbCodeVfcHH HiddenContent">
<div class="attribution type">Hidden Content:</div>
<blockquote>You must reply before you can see the hidden data contained here.</blockquote>
</div><b>Password: musicasylum</b>
<div class="messageTextEndMarker">&nbsp;</div>
</blockquote>
</article>]]></description>
                <author><![CDATA[Mu$iC @$YLUM]]></author>
                </item>

                
                <item>
                <title><![CDATA[【HD Live Performances】WEB-DL - Adele Live at Glastonbury 2016 1080p AMZN WEB-DL DDP2.0 H.264-SiGLA]]></title>
                <link><![CDATA[https://sharemania.us/threads/adele-live-at-glastonbury-2016-1080p-amzn-web-dl-ddp2-0-h-264-sigla.242729/]]></link>
                <description><![CDATA[<article>
<blockquote class="messageText SelectQuoteContainer ugc baseHtml">
<div style="text-align: center"><img src="https://ptpimg.me/g168cu.jpg" class="bbCodeImage LbImage" alt="[​IMG]" data-url="https://ptpimg.me/g168cu.jpg" style="">​</div><div style="text-align: left">
<div class="bbCodeBlock bbCodeCode">
<div class="type">Code:</div>
<pre>General
Unique ID                                : 119641646221773441550242112932221834120 (0x5A02249573432F3DAA5CC7F6E8145388)
Complete name                            : Adele.Live.at.Glastonbury.2016.1080p.AMZN.WEB-DL.DDP2.0.H.264-SiGLA.mkv
Format                                   : Matroska
Format version                           : Version 4
File size                                : 6.46 GiB
Duration                                 : 1 h 34 min
Overall bit rate mode                    : Constant
Overall bit rate                         : 9 775 kb/s
Movie name                               : Adele.-.Live.at.Glastonbury.2016.1080p.AMZN.WEB-DL.DDP2.0.H.264-SiGLA
Writing application                      : mkvmerge v62.0.0 ('SiGLA') 64-bit
Writing library                          : libebml v1.4.2 + libmatroska v1.6.4

Video
ID                                       : 1
Format                                   : AVC
Format/Info                              : Advanced Video Codec
Format profile                           : High@L4
Format settings                          : CABAC / 4 Ref Frames
Format settings, CABAC                   : Yes
Format settings, Reference frames        : 4 frames
Codec ID                                 : V_MPEG4/ISO/AVC
Duration                                 : 1 h 34 min
Bit rate mode                            : Constant
Bit rate                                 : 10 000 kb/s
Width                                    : 1 920 pixels
Height                                   : 1 080 pixels
Display aspect ratio                     : 16:9
Frame rate mode                          : Constant
Frame rate                               : 25.000 FPS
Color space                              : YUV
Chroma subsampling                       : 4:2:0
Bit depth                                : 8 bits
Scan type                                : Progressive
Bits/(Pixel*Frame)                       : 0.193
Stream size                              : 6.32 GiB (98%)
Default                                  : Yes
Forced                                   : No
Color range                              : Limited
Color primaries                          : BT.709
Transfer characteristics                 : BT.709
Matrix coefficients                      : BT.709

Audio
ID                                       : 2
Format                                   : E-AC-3
Format/Info                              : Enhanced AC-3
Commercial name                          : Dolby Digital Plus
Codec ID                                 : A_EAC3
Duration                                 : 1 h 34 min
Bit rate mode                            : Constant
Bit rate                                 : 224 kb/s
Channel(s)                               : 2 channels
Channel layout                           : L R
Sampling rate                            : 48.0 kHz
Frame rate                               : 31.250 FPS (1536 SPF)
Compression mode                         : Lossy
Stream size                              : 152 MiB (2%)
Title                                    : English
Language                                 : English
Service kind                             : Complete Main
Default                                  : Yes
Forced                                   : No
</pre>
</div></div><br>
<div class="bbCodeBlock bbCodeVfcHH HiddenContent">
<div class="attribution type">Hidden Content:</div>
<blockquote>You must either reply or click 'Like' to see the hidden information contained here.</blockquote>
</div>
<div class="messageTextEndMarker">&nbsp;</div>
</blockquote>
</article>]]></description>
                <author><![CDATA[-C.A.A]]></author>
                </item>

                
                <item>
                <title><![CDATA[【HD Live Performances】WEB-DL - Katy Perry Live at Glastonbury 2017 1080p AMZN WEB-DL DDP2.0 H.264-SiGLA]]></title>
                <link><![CDATA[https://sharemania.us/threads/katy-perry-live-at-glastonbury-2017-1080p-amzn-web-dl-ddp2-0-h-264-sigla.242730/]]></link>
                <description><![CDATA[<article>
<blockquote class="messageText SelectQuoteContainer ugc baseHtml">
<div style="text-align: center"><img src="https://ptpimg.me/max7c0.jpg" class="bbCodeImage LbImage" alt="[​IMG]" data-url="https://ptpimg.me/max7c0.jpg" style="">​</div><div style="text-align: left">
<div class="bbCodeBlock bbCodeCode">
<div class="type">Code:</div>
<pre>General
Unique ID                                : 154191456620567124028739706145532538062 (0x740031C0C0B44EE4F48EF9799613ECCE)
Complete name                            : Katy.Perry.Live.at.Glastonbury.2017.1080p.AMZN.WEB-DL.DDP2.0.H.264-SiGLA.mkv
Format                                   : Matroska
Format version                           : Version 4
File size                                : 4.06 GiB
Duration                                 : 57 min 25 s
Overall bit rate mode                    : Constant
Overall bit rate                         : 10.1 Mb/s
Movie name                               : Katy.Perry.-.Live.at.Glastonbury.2017.1080p.AMZN.WEB-DL.DDP2.0.H.264-SiGLA
Writing application                      : mkvmerge v62.0.0 ('SiGLA') 64-bit
Writing library                          : libebml v1.4.2 + libmatroska v1.6.4

Video
ID                                       : 1
Format                                   : AVC
Format/Info                              : Advanced Video Codec
Format profile                           : High@L4
Format settings                          : CABAC / 4 Ref Frames
Format settings, CABAC                   : Yes
Format settings, Reference frames        : 4 frames
Codec ID                                 : V_MPEG4/ISO/AVC
Duration                                 : 57 min 25 s
Bit rate mode                            : Constant
Bit rate                                 : 10 000 kb/s
Width                                    : 1 920 pixels
Height                                   : 1 080 pixels
Display aspect ratio                     : 16:9
Frame rate mode                          : Constant
Frame rate                               : 25.000 FPS
Color space                              : YUV
Chroma subsampling                       : 4:2:0
Bit depth                                : 8 bits
Scan type                                : Progressive
Bits/(Pixel*Frame)                       : 0.193
Stream size                              : 3.97 GiB (98%)
Default                                  : Yes
Forced                                   : No
Color range                              : Limited
Color primaries                          : BT.709
Transfer characteristics                 : BT.709
Matrix coefficients                      : BT.709

Audio
ID                                       : 2
Format                                   : E-AC-3
Format/Info                              : Enhanced AC-3
Commercial name                          : Dolby Digital Plus
Codec ID                                 : A_EAC3
Duration                                 : 57 min 25 s
Bit rate mode                            : Constant
Bit rate                                 : 224 kb/s
Channel(s)                               : 2 channels
Channel layout                           : L R
Sampling rate                            : 48.0 kHz
Frame rate                               : 31.250 FPS (1536 SPF)
Compression mode                         : Lossy
Stream size                              : 92.0 MiB (2%)
Title                                    : English
Language                                 : English
Service kind                             : Complete Main
Default                                  : Yes
Forced                                   : No
</pre>
</div></div><br>
<div class="bbCodeBlock bbCodeVfcHH HiddenContent">
<div class="attribution type">Hidden Content:</div>
<blockquote>You must either reply or click 'Like' to see the hidden information contained here.</blockquote>
</div>
<div class="messageTextEndMarker">&nbsp;</div>
</blockquote>
</article>]]></description>
                <author><![CDATA[-C.A.A]]></author>
                </item>

                </channel></rss>